<?xml version="1.0" standalone="no"?>
<!DOCTYPE svg PUBLIC "-//W3C//DTD SVG 20010904//EN"
 "http://www.w3.org/TR/2001/REC-SVG-20010904/DTD/svg10.dtd">
<svg version="1.0" xmlns="http://www.w3.org/2000/svg"
 width="632.000000pt" height="632.000000pt" viewBox="0 0 632.000000 632.000000"
 preserveAspectRatio="xMidYMid meet">

<g transform="translate(0.000000,632.000000) scale(0.100000,-0.100000)"
fill="#000000" stroke="none">
<path d="M2875 6299 c-431 -42 -821 -165 -1240 -392 -340 -184 -671 -485 -952
-867 -334 -453 -550 -1008 -618 -1585 -8 -71 -15 -158 -15 -192 l0 -63 65 0
c36 0 65 -4 65 -9 0 -14 -27 -21 -81 -21 -50 0 -50 0 -47 -31 l3 -31 75 -4
c41 -3 82 -7 90 -11 8 -3 38 -9 65 -13 35 -5 8 -8 -92 -9 l-143 -1 0 -25 0
-25 139 0 c132 0 141 1 168 24 15 13 48 27 73 31 25 4 60 14 79 21 42 18 51
11 25 -19 -11 -12 -33 -42 -49 -67 -33 -53 -169 -190 -214 -216 -17 -10 -31
-24 -31 -31 0 -24 163 -30 238 -7 20 6 14 -7 -39 -92 -68 -111 -135 -208 -187
-272 -19 -24 -32 -45 -30 -47 8 -9 161 55 226 94 37 22 93 62 126 88 32 26 72
59 89 73 l31 25 -34 -48 c-46 -65 -171 -182 -245 -232 -59 -39 -198 -105 -222
-105 -20 0 -16 -17 36 -176 59 -178 107 -306 124 -326 10 -12 34 -13 142 -8
232 12 718 4 875 -14 199 -22 354 -44 490 -67 184 -32 174 -27 101 -60 -48
-22 -79 -29 -125 -29 -34 0 -86 -6 -116 -14 -30 -7 -73 -17 -94 -21 -21 -3
-76 -20 -122 -37 -135 -48 -179 -105 -205 -267 -18 -116 25 -256 100 -324 33
-30 39 -42 45 -93 7 -63 42 -149 81 -200 53 -70 135 -95 223 -68 26 7 50 14
53 14 3 0 9 -23 12 -51 14 -119 112 -256 199 -280 77 -21 126 -3 396 147 136
76 285 159 332 184 47 26 158 88 247 138 l162 91 168 -93 c283 -156 554 -306
633 -351 173 -98 222 -119 280 -119 123 -1 228 110 261 277 12 59 17 64 50 46
34 -18 123 -13 167 10 83 42 151 168 152 278 0 24 8 40 31 60 71 63 109 158
109 272 0 168 -67 291 -173 316 -33 9 -46 25 -19 25 31 0 134 39 175 66 21 14
47 40 58 59 16 27 29 35 62 40 23 4 94 23 157 42 115 35 115 35 255 29 115 -6
330 -21 408 -29 20 -2 64 98 137 314 43 127 46 139 28 139 -6 0 -36 12 -67 26
-171 81 -329 220 -488 429 -42 55 -109 132 -148 172 -93 94 -110 114 -70 86
45 -31 166 -88 240 -113 60 -20 68 -26 111 -88 78 -110 208 -265 327 -388
l112 -117 16 54 16 54 -47 50 c-62 66 -170 218 -170 241 0 2 61 4 135 4 83 0
135 4 135 10 0 6 -55 10 -145 10 l-144 0 -52 96 c-44 81 -58 99 -88 111 -120
50 -264 126 -313 167 -98 80 -172 212 -231 414 -9 28 -14 52 -12 52 3 0 14
-19 26 -42 50 -98 221 -338 290 -408 123 -124 217 -174 353 -188 74 -8 207 4
216 19 3 4 37 9 75 11 54 2 70 6 70 18 0 12 -21 16 -111 20 -102 5 -114 7
-147 33 -21 15 -37 33 -37 38 0 7 53 8 155 4 l155 -6 0 26 0 25 -178 0 c-166
0 -180 1 -197 20 -18 20 -17 20 178 20 l197 0 0 25 0 25 -214 0 c-181 0 -215
2 -220 15 -7 19 -11 19 229 19 l200 1 3 33 3 32 -245 0 c-202 0 -246 2 -246
14 0 11 41 13 245 8 l245 -5 0 101 c0 155 -41 422 -99 643 -199 758 -685 1454
-1301 1863 -286 190 -703 372 -1001 437 -281 61 -372 71 -639 74 -140 1 -291
-2 -335 -6z m15 -189 c0 -21 -33 -29 -45 -10 -9 15 4 30 26 30 12 0 19 -7 19
-20z m595 -5 c0 -13 -8 -21 -22 -23 -19 -3 -23 1 -23 23 0 22 4 26 23 23 14
-2 22 -10 22 -23z m-1221 -117 c15 -24 -13 -53 -43 -43 -21 6 -29 43 -14 59
12 12 45 2 57 -16z m1587 -82 l31 -13 -35 -21 c-21 -12 -37 -30 -39 -44 l-4
-23 -13 26 c-7 14 -29 36 -49 47 -21 12 -30 22 -21 22 26 0 69 39 70 63 0 18
3 16 15 -11 9 -20 27 -38 45 -46z m-1197 -8 c6 -13 25 -30 42 -38 l30 -14 -30
-16 c-17 -8 -35 -25 -41 -37 -13 -30 -18 -29 -32 7 -8 22 -20 32 -44 37 l-32
6 36 19 c23 11 39 28 43 44 7 27 11 26 28 -8z m515 -88 c2 -45 57 -146 96
-176 21 -16 72 -37 118 -50 45 -12 70 -23 56 -23 -15 -1 -56 -10 -91 -21 -104
-32 -155 -93 -180 -219 l-11 -55 -22 82 c-35 132 -87 180 -221 206 l-69 13 60
12 c153 32 216 99 240 256 7 43 9 47 16 25 4 -14 7 -36 8 -50z m1297 14 c7
-29 -6 -47 -31 -42 -44 8 -45 68 -1 68 19 0 27 -7 32 -26z m-880 -45 c3 -6 -1
-18 -9 -27 -13 -12 -19 -13 -31 -3 -8 7 -12 19 -9 27 6 17 39 19 49 3z m-1421
-74 c81 -22 191 -78 240 -121 35 -31 37 -35 15 -29 -55 14 -212 17 -272 6
-362 -70 -537 -473 -339 -778 109 -168 281 -251 496 -240 169 8 316 79 428
208 26 29 54 69 63 87 9 19 17 32 19 30 6 -6 -22 -135 -41 -183 -66 -176 -222
-349 -390 -432 -182 -92 -438 -115 -619 -56 -293 94 -503 330 -560 628 -20
103 -19 192 5 297 65 293 301 524 605 592 86 19 262 15 350 -9z m2525 -51 c11
-12 10 -18 -4 -32 -16 -16 -18 -16 -31 2 -11 14 -12 23 -4 33 15 17 24 16 39
-3z m-480 -56 c0 -32 43 -119 71 -145 13 -11 53 -30 89 -41 51 -16 58 -20 34
-21 -17 -1 -55 -13 -85 -28 -46 -24 -58 -37 -81 -83 -15 -30 -28 -67 -28 -82
0 -41 -16 -34 -24 10 -17 99 -80 168 -165 179 -23 3 -41 8 -41 12 0 3 23 12
50 18 89 21 138 74 155 166 8 40 25 50 25 15z m878 -196 c3 -17 -2 -22 -17
-22 -14 0 -21 6 -21 18 0 38 33 41 38 4z m-1494 -19 c4 -9 0 -23 -9 -32 -13
-14 -17 -14 -31 1 -9 9 -14 24 -11 32 8 21 43 20 51 -1z m-918 -73 l25 -14
-31 -24 c-16 -13 -30 -31 -30 -40 0 -10 -8 -4 -21 17 -11 18 -29 35 -40 38
-18 5 -17 8 12 25 17 10 34 29 37 41 5 21 6 21 14 -4 5 -14 20 -32 34 -39z
m-420 15 c4 -8 4 -22 0 -30 -7 -19 -36 -8 -36 14 0 32 26 43 36 16z m2599
-155 c26 -12 27 -15 10 -18 -28 -6 -55 -32 -71 -67 -10 -23 -13 -25 -14 -10 0
30 -27 64 -63 79 -26 12 -28 15 -11 15 26 1 74 44 74 67 0 11 8 5 23 -17 12
-19 36 -41 52 -49z m-967 48 c17 -17 15 -43 -4 -59 -31 -26 -70 25 -44 56 15
18 32 19 48 3z m1400 -104 c4 -25 -22 -38 -37 -20 -15 18 -3 48 18 44 9 -2 17
-13 19 -24z m-2923 -67 c9 -15 32 -32 51 -39 19 -6 34 -14 34 -18 0 -3 -18
-13 -41 -22 -31 -13 -44 -26 -56 -57 l-16 -40 -21 42 c-15 30 -33 48 -65 63
l-45 22 32 6 c36 9 92 67 93 99 1 20 1 20 9 -4 4 -14 15 -38 25 -52z m1125 28
c19 -23 8 -50 -20 -50 -16 0 -26 6 -28 18 -4 18 14 47 28 47 4 0 13 -7 20 -15z
m-2511 -338 c43 -182 120 -333 239 -469 153 -174 308 -268 546 -331 115 -30
379 -30 512 1 103 24 258 81 324 119 25 15 56 33 70 41 16 9 13 4 -10 -16
-100 -87 -294 -177 -453 -209 -97 -20 -279 -22 -387 -4 -393 64 -714 340 -841
722 -29 87 -31 106 -34 254 -3 135 -2 146 5 70 4 -49 17 -129 29 -178z m1040
239 c15 -18 3 -46 -19 -46 -22 0 -30 19 -18 43 11 21 22 22 37 3z m2559 -24
c4 -30 -26 -42 -44 -17 -10 14 -11 22 -2 32 16 20 42 12 46 -15z m-653 -22 c0
-18 -6 -26 -23 -28 -13 -2 -25 3 -28 12 -10 26 4 48 28 44 17 -2 23 -10 23
-28z m1495 -43 c37 -14 38 -23 4 -31 -17 -5 -31 -19 -41 -44 l-16 -37 -9 34
c-7 23 -18 36 -39 44 -37 14 -36 20 1 34 23 8 32 20 37 45 l7 33 13 -34 c9
-21 25 -37 43 -44z m-2252 40 c4 -20 -25 -34 -40 -19 -15 15 -1 44 19 40 10
-2 19 -11 21 -21z m1962 -119 c175 -247 287 -395 354 -465 36 -39 66 -73 66
-75 0 -12 -107 15 -151 38 -93 46 -214 182 -312 349 l-28 48 -31 -59 c-39 -75
-62 -108 -112 -164 -91 -101 -217 -180 -321 -199 -90 -17 -91 -15 -34 47 70
77 233 288 359 467 57 80 106 145 110 145 3 0 49 -60 100 -132z m-1449 -59
c19 -28 82 -58 122 -60 12 0 0 -7 -28 -16 -63 -19 -103 -56 -118 -110 l-11
-43 -18 49 c-23 60 -43 79 -110 102 -31 10 -44 18 -31 18 39 2 103 32 122 60
10 14 22 42 26 61 l8 35 9 -35 c6 -19 18 -46 29 -61z m749 -28 c0 -29 37 -68
78 -82 l37 -12 -30 -10 c-41 -13 -65 -35 -83 -77 l-15 -35 -8 29 c-12 42 -47
75 -88 82 l-36 7 40 14 c45 15 85 54 85 84 0 10 5 19 10 19 6 0 10 -8 10 -19z
m-3720 -46 c5 -14 23 -33 39 -42 l28 -17 -31 -21 c-17 -11 -32 -31 -34 -43 -4
-26 -22 -30 -22 -5 0 24 -40 63 -64 63 -16 0 -11 6 19 23 25 14 41 31 43 45 4
29 10 28 22 -3z m2458 -73 c3 -16 -2 -22 -16 -22 -22 0 -32 17 -24 38 7 20 37
9 40 -16z m827 -112 c0 -29 -32 -41 -41 -16 -9 24 4 48 23 44 12 -2 18 -12 18
-28z m1700 4 c19 -20 16 -43 -7 -58 -35 -22 -74 27 -48 59 16 19 35 19 55 -1z
m-2276 -43 c12 -21 5 -31 -20 -31 -24 0 -33 18 -19 35 17 20 27 19 39 -4z
m-321 -177 c124 -69 245 -208 285 -328 38 -111 31 -236 -19 -341 -13 -27 -65
-104 -115 -170 -50 -66 -104 -147 -120 -181 -40 -83 -62 -194 -55 -269 7 -71
35 -165 48 -165 6 0 7 7 4 16 -12 31 15 159 48 229 37 77 80 137 204 276 91
103 138 186 151 267 4 29 10 55 13 58 12 12 58 -131 69 -214 18 -138 2 -188
-121 -387 -90 -146 -88 -235 8 -373 114 -164 153 -267 138 -359 -6 -35 -5 -37
9 -19 37 48 58 129 58 226 1 86 -3 104 -36 187 -65 167 -70 259 -17 368 19 39
109 136 97 105 -48 -127 -46 -180 13 -339 22 -58 46 -137 55 -174 21 -96 20
-288 -4 -418 -52 -285 -156 -445 -357 -547 l-42 -21 -6 62 c-13 112 -96 291
-236 505 l-67 103 -11 -68 c-17 -104 -48 -186 -122 -328 -37 -71 -73 -151 -80
-177 -16 -61 -9 -183 13 -227 9 -19 17 -36 17 -39 0 -10 -59 12 -115 43 -194
108 -334 338 -381 625 -14 82 -14 120 -4 284 20 302 2 391 -112 559 l-40 59
61 -32 c81 -43 173 -141 214 -227 29 -62 32 -76 31 -163 -1 -60 -9 -127 -22
-183 -22 -89 -28 -158 -14 -156 10 1 131 151 164 203 34 56 58 127 58 175 0
60 -36 160 -80 226 -131 193 -153 338 -72 493 94 183 113 226 126 282 8 36 16
81 18 100 l3 35 21 -45 c55 -117 56 -239 4 -380 -59 -158 -52 -264 26 -406 35
-63 131 -176 119 -139 -31 94 -40 150 -39 240 1 121 18 169 120 331 79 125
111 200 126 287 24 146 -27 337 -132 492 -14 22 -37 57 -49 78 l-23 37 54 -20
c29 -12 81 -37 116 -56z m1826 -11 c-81 -140 -202 -283 -304 -358 -91 -67
-226 -125 -291 -125 l-31 0 64 69 c35 38 99 122 143 188 l80 119 63 12 c82 16
195 64 252 107 25 18 47 34 48 34 2 1 -9 -20 -24 -46z m-4229 -13 c0 -18 -6
-26 -21 -28 -23 -3 -37 18 -27 44 10 25 48 13 48 -16z m4618 -45 c26 -14 71
-31 100 -39 51 -13 53 -14 134 -132 45 -65 105 -145 134 -177 28 -32 49 -61
46 -64 -10 -10 -102 18 -150 45 -70 40 -160 134 -232 242 -35 52 -78 115 -97
140 -29 40 -30 43 -8 28 14 -10 46 -29 73 -43z m-1192 -41 c17 -21 0 -49 -32
-49 -24 0 -36 23 -25 51 7 19 40 18 57 -2z m-371 -66 l32 -15 -26 -7 c-15 -4
-35 -21 -46 -39 -11 -18 -20 -25 -20 -16 0 17 -36 54 -60 61 -10 3 -5 10 17
22 19 9 35 27 39 42 l7 26 12 -29 c7 -16 27 -36 45 -45z m1360 -83 c51 -106
127 -204 197 -254 61 -44 162 -81 222 -81 31 0 40 -5 56 -32 10 -18 37 -52 58
-76 22 -23 38 -45 35 -48 -11 -10 -116 44 -156 80 -24 22 -67 46 -109 60 -155
53 -249 116 -297 199 -31 55 -66 181 -65 238 0 40 1 42 11 19 6 -14 27 -61 48
-105z m728 113 c17 -17 15 -43 -4 -59 -31 -26 -70 25 -44 56 15 18 32 19 48 3z
m-5325 -60 c7 -21 -4 -38 -23 -38 -23 0 -34 16 -26 35 7 18 43 20 49 3z m309
-107 c-2 -163 -32 -240 -134 -337 -95 -91 -190 -134 -298 -136 -77 -1 -93 12
-48 40 62 38 260 265 392 447 39 53 78 96 84 90 3 -3 5 -50 4 -104z m382 -67
c8 -20 -3 -41 -24 -47 -36 -9 -56 43 -23 61 20 12 39 6 47 -14z m-839 -64 c0
-18 -6 -26 -23 -28 -13 -2 -25 3 -28 12 -10 26 4 48 28 44 17 -2 23 -10 23
-28z m5643 -6 c4 -25 -22 -38 -37 -20 -15 18 -3 48 18 44 9 -2 17 -13 19 -24z
m-2080 -22 c3 -16 -2 -22 -17 -22 -26 0 -36 17 -20 36 16 19 33 13 37 -14z
m-2846 -53 c51 -47 228 -179 271 -200 21 -11 35 -24 32 -29 -9 -14 -126 -12
-151 3 -61 36 -130 117 -165 196 -12 25 -23 49 -26 54 -9 16 7 6 39 -24z
m3684 -55 c-42 -39 -50 -52 -57 -96 -24 -148 -178 -315 -358 -388 -73 -30
-104 -33 -313 -31 -107 1 -128 4 -128 16 0 13 27 15 179 15 l179 0 57 63 c71
77 148 193 209 313 l46 92 52 7 c29 3 80 17 113 30 33 12 62 23 65 23 3 1 -17
-19 -44 -44z m-3158 8 c3 -16 -2 -22 -17 -22 -24 0 -33 13 -25 35 9 23 38 14
42 -13z m832 -54 c0 -4 -73 -7 -162 -6 l-163 2 145 6 c80 3 153 5 163 5 9 1
17 -3 17 -7z m1643 -5 c3 -5 -43 -7 -101 -5 -171 4 -188 9 -40 10 75 1 139 -1
141 -5z m-2056 -9 c-3 -3 -12 -4 -19 -1 -8 3 -5 6 6 6 11 1 17 -2 13 -5z
m2130 0 c-3 -3 -12 -4 -19 -1 -8 3 -5 6 6 6 11 1 17 -2 13 -5z m40 0 c-3 -3
-12 -4 -19 -1 -8 3 -5 6 6 6 11 1 17 -2 13 -5z m71 -1 c-10 -2 -26 -2 -35 0
-10 3 -2 5 17 5 19 0 27 -2 18 -5z m-1899 -69 c84 -17 -11 -24 -326 -24 -191
0 -344 2 -342 4 2 2 128 7 279 11 151 4 277 9 279 11 7 6 75 5 110 -2z m1861
-14 c128 -6 110 -7 -147 -8 -190 -1 -293 2 -293 8 0 11 211 12 440 0z m-3521
-67 c-87 -142 -178 -242 -259 -283 -70 -36 -214 -63 -160 -30 37 22 109 89
153 141 36 42 66 66 121 93 47 23 93 56 127 91 30 30 55 55 56 55 2 0 -16 -30
-38 -67z m4683 46 c16 -12 60 -34 96 -50 l67 -27 47 -121 c74 -193 136 -307
207 -385 42 -45 28 -43 -59 7 -130 76 -253 244 -282 387 -10 50 -22 77 -55
117 -45 56 -68 93 -57 93 3 0 19 -10 36 -21z m446 4 c-16 -2 -40 -2 -55 0 -16
2 -3 4 27 4 30 0 43 -2 28 -4z m-3478 -63 c0 -6 -52 -10 -137 -10 -76 0 -207
-1 -290 -3 -84 -3 -153 0 -153 4 0 8 83 12 408 17 110 1 172 -1 172 -8z m1900
-10 c58 -5 3 -7 -174 -6 -210 1 -260 4 -264 15 -4 11 25 12 174 6 99 -4 217
-11 264 -15z m-2490 0 c0 -6 -38 -9 -97 -8 l-98 2 80 6 c44 3 88 7 98 8 9 1
17 -2 17 -8z m4028 -17 c-15 -2 -42 -2 -60 0 -18 2 -6 4 27 4 33 0 48 -2 33
-4z m-4539 -13 c56 0 58 -1 75 -37 26 -57 96 -164 130 -202 l31 -33 -40 7
c-87 15 -167 75 -200 150 -13 27 -33 59 -45 70 -12 11 -26 28 -32 39 -9 16 -7
18 7 13 9 -4 42 -7 74 -7z m1078 -46 c2 -6 -3 -14 -12 -18 -9 -3 -211 -3 -448
2 -478 8 -478 9 -2 21 401 10 457 9 462 -5z m1916 0 c87 -15 23 -24 -167 -24
-172 0 -205 2 -210 15 -5 13 18 15 167 15 95 0 189 -3 210 -6z m-3889 -33 c-5
-6 -37 -7 -79 -2 l-70 8 79 2 c50 1 76 -3 70 -8z m5526 -1 c0 -11 -172 -11
-190 0 -10 6 20 9 88 9 56 0 102 -4 102 -9z m88 -7 c-10 -2 -28 -2 -40 0 -13
2 -5 4 17 4 22 1 32 -1 23 -4z m49 1 c-3 -3 -12 -4 -19 -1 -8 3 -5 6 6 6 11 1
17 -2 13 -5z m-3709 -56 c3 -17 -17 -18 -305 -18 -333 0 -533 8 -533 21 0 5
145 10 323 12 520 4 511 5 515 -15z m1902 -3 c-10 -12 -42 -15 -166 -15 -130
0 -154 2 -154 15 0 13 25 15 166 15 147 0 165 -2 154 -15z m-3930 -15 c0 -6
-34 -10 -81 -10 -51 0 -78 4 -74 10 3 6 40 10 81 10 43 0 74 -4 74 -10z m4499
-27 c-64 -106 -206 -289 -304 -393 -52 -56 -95 -105 -95 -110 0 -16 27 -12 89
15 134 56 256 142 385 271 l69 69 -33 -50 c-44 -67 -122 -159 -184 -218 -117
-109 -221 -177 -397 -257 -63 -29 -116 -54 -119 -57 -3 -3 108 -3 245 -1 234
4 255 6 335 30 47 15 86 25 88 23 2 -1 -22 -17 -53 -34 -31 -18 -79 -55 -106
-84 -38 -40 -57 -52 -82 -54 -43 -2 -301 -88 -346 -114 -33 -20 -35 -20 -44
-2 -12 21 -113 123 -143 144 -19 13 -21 27 -27 147 l-6 132 139 0 c87 0 140 4
140 10 0 6 -55 10 -145 10 l-145 0 -6 28 c-3 15 -10 39 -14 55 l-9 27 210 0
c169 0 209 3 209 14 0 17 -102 26 -295 26 -140 0 -143 0 -148 23 -2 12 -8 30
-12 40 -7 16 9 17 244 17 240 0 251 1 261 20 10 19 7 20 -72 21 -46 1 -171 4
-278 8 -171 5 -195 8 -198 23 -3 15 23 17 307 20 229 2 313 6 322 15 7 7 9 16
5 20 -4 5 -155 11 -334 14 -180 4 -328 7 -329 8 -2 0 -3 6 -3 13 0 8 71 9 283
4 268 -6 285 -6 342 14 58 20 196 94 244 131 34 27 36 24 10 -18z m1179 28
c61 -1 112 -4 112 -8 0 -6 -262 -8 -342 -3 -5 0 -8 4 -8 10 0 6 26 8 63 6 34
-2 113 -4 175 -5z m162 -17 c0 -2 -7 -4 -15 -4 -8 0 -15 4 -15 10 0 5 7 7 15
4 8 -4 15 -8 15 -10z m-5230 -134 c-31 -137 -119 -234 -240 -264 l-25 -7 25
18 c94 67 181 179 223 286 26 68 35 50 17 -33z m1252 78 c-10 -10 -89 -14
-307 -16 -262 -3 -295 -1 -295 12 0 14 36 16 307 16 246 0 305 -3 295 -12z
m-922 -86 c140 -65 142 -66 534 -72 l359 -5 15 -24 c16 -23 15 -23 -7 -16 -12
4 -182 4 -377 -1 -318 -6 -355 -8 -352 -23 3 -14 45 -17 388 -21 l385 -5 11
-35 c7 -19 11 -36 10 -37 -1 -2 -157 -3 -347 -4 -365 -1 -422 -4 -416 -23 3
-8 114 -12 388 -16 l383 -5 9 -43 c5 -24 6 -46 4 -49 -3 -2 -192 -7 -421 -10
-229 -4 -416 -10 -416 -15 0 -4 187 -8 415 -8 l416 0 -3 -57 -3 -58 -425 0
c-488 0 -440 -9 -537 106 -70 85 -83 105 -56 91 35 -19 158 -39 213 -34 30 2
56 5 58 7 1 1 -21 18 -50 37 -113 75 -227 217 -283 352 l-16 38 28 -19 c15
-11 57 -34 93 -51z m848 -9 c4 -15 -213 -18 -376 -7 -171 13 -93 24 140 22
174 -2 232 -6 236 -15z m44 -680 c-32 -32 -75 -83 -96 -114 -74 -113 -119
-305 -96 -416 7 -30 10 -56 8 -58 -2 -2 -62 -5 -133 -6 l-129 -2 -44 49 c-73
83 -168 233 -238 379 l-67 139 -16 -34 c-87 -197 -204 -394 -293 -493 -39 -44
-46 -48 -82 -45 l-38 3 58 70 c89 109 176 247 265 423 l81 162 439 0 440 0
-59 -57z m3050 33 c21 -13 48 -68 78 -157 12 -35 44 -116 71 -181 52 -124 60
-173 32 -207 -23 -28 -253 -111 -307 -111 -73 0 -117 42 -185 177 -71 142
-100 290 -69 357 16 37 46 53 182 102 122 44 155 47 198 20z m-2916 -134 c-11
-19 15 -216 38 -287 30 -94 137 -317 203 -422 25 -41 43 -76 41 -79 -9 -9
-167 53 -208 81 -99 69 -176 210 -195 360 -6 50 12 170 35 230 18 49 73 134
82 129 5 -3 7 -8 4 -12z m1760 -50 c47 -70 77 -163 78 -240 l1 -66 -105 -38
c-58 -21 -113 -41 -122 -44 -14 -4 -9 13 22 78 46 100 80 226 80 302 0 31 3
56 8 56 4 0 21 -22 38 -48z m618 -39 c3 -16 8 -48 12 -73 16 -109 104 -311
177 -407 24 -32 36 -58 31 -63 -11 -11 -219 -88 -262 -96 -48 -10 -95 3 -129
36 -35 35 -90 135 -128 235 -47 124 -44 260 7 292 14 8 268 101 280 102 3 1 9
-11 12 -26z m-3185 -372 c12 -16 21 -32 21 -35 0 -3 -20 -6 -44 -6 -41 0 -44
2 -50 33 -4 17 -9 66 -12 107 l-5 75 35 -73 c19 -40 44 -85 55 -101z m1730
101 c30 -59 61 -170 61 -218 0 -76 -20 -109 -79 -129 -51 -17 -51 -17 -71 7
-30 36 -42 104 -31 165 13 65 81 224 93 217 4 -3 17 -22 27 -42z m1061 -148
c11 -37 20 -67 18 -69 -7 -5 -471 -183 -563 -215 -44 -15 -145 -54 -225 -85
-79 -31 -205 -79 -280 -106 -74 -28 -193 -73 -265 -100 -259 -101 -434 -168
-515 -197 -30 -11 -109 -41 -175 -66 -66 -26 -156 -60 -200 -77 -44 -17 -146
-63 -227 -101 -81 -39 -153 -68 -162 -65 -51 20 -81 197 -40 237 18 17 100 44
464 155 398 121 907 298 1694 590 426 158 439 162 448 164 3 0 16 -29 28 -65z
m10 -284 c23 -6 40 -13 38 -15 -4 -4 -189 -78 -328 -132 -36 -13 -86 -33 -112
-44 -34 -14 -59 -17 -95 -13 -79 11 -85 20 -28 45 106 47 461 178 472 174 6
-2 30 -9 53 -15z m-1945 -44 c99 -29 204 -59 233 -65 28 -7 52 -16 52 -20 0
-14 -112 -43 -144 -37 -17 4 -125 37 -240 74 l-208 68 38 16 c22 9 50 16 64
17 14 0 106 -23 205 -53z m-361 -60 c39 -14 89 -37 112 -51 23 -14 51 -25 62
-25 18 0 149 -44 158 -53 8 -8 -174 -57 -190 -51 -9 4 -16 1 -16 -6 0 -7 -6
-10 -14 -7 -8 3 -16 2 -18 -3 -3 -10 -390 -122 -397 -115 -2 3 -5 32 -5 64 0
33 -4 55 -7 49 -4 -5 -11 3 -17 19 -13 39 -69 102 -101 114 -35 14 -17 26 69
44 41 8 107 24 145 35 86 23 130 21 219 -14z m2533 15 c26 -5 109 -19 183 -31
74 -12 139 -26 144 -31 6 -6 5 -9 -2 -9 -20 0 -99 -78 -112 -110 -7 -16 -15
-28 -19 -26 -3 2 -7 -17 -9 -42 -2 -26 -4 -48 -6 -49 -1 -2 -25 3 -52 11 -27
7 -83 21 -124 29 -41 9 -109 23 -150 32 -196 43 -257 55 -282 55 -46 0 -32 16
45 49 46 20 91 32 125 33 28 0 52 5 52 11 0 5 -10 7 -21 4 -43 -11 0 17 74 49
82 36 89 37 154 25z m-801 -201 c87 -17 193 -37 234 -46 41 -8 138 -26 215
-39 77 -14 172 -32 210 -40 39 -8 126 -26 193 -40 68 -13 134 -31 147 -39 35
-23 49 -77 41 -159 -7 -72 -32 -129 -62 -141 -16 -6 -143 57 -199 99 -44 34
-162 71 -339 105 -83 16 -176 34 -206 40 -30 6 -82 15 -115 21 -33 6 -114 23
-180 39 -172 41 -362 81 -418 87 -54 7 -52 13 10 33 44 14 153 3 257 -26 27
-8 68 -14 90 -13 38 0 39 1 16 11 -14 6 -34 12 -45 14 -85 15 -217 52 -206 58
21 13 165 65 182 66 9 0 88 -14 175 -30z m-2150 -21 c8 -16 17 -48 20 -73 5
-36 2 -51 -21 -90 -15 -25 -28 -46 -30 -46 -2 0 -14 17 -26 37 -18 29 -23 52
-23 108 -1 79 12 106 45 98 11 -3 26 -18 35 -34z m3312 24 c13 -13 17 -35 17
-92 0 -64 -4 -81 -24 -110 l-24 -34 -30 58 c-34 67 -33 115 3 165 24 34 35 37
58 13z m-2130 -297 c-86 -41 -97 -52 -22 -23 32 13 73 26 89 30 17 3 39 9 50
13 16 6 15 3 -5 -13 -14 -11 -133 -75 -265 -141 -261 -131 -377 -193 -371
-199 13 -13 281 97 552 227 92 44 169 79 171 77 2 -2 -47 -30 -109 -62 -62
-32 -135 -70 -163 -85 -63 -34 -242 -129 -361 -190 l-90 -47 -17 61 c-9 34
-19 70 -22 81 -3 11 -15 27 -27 37 -13 9 -20 20 -16 24 8 8 231 90 472 174 93
33 171 62 174 65 3 3 10 5 16 4 6 0 -19 -15 -56 -33z m910 -37 c13 0 21 -2 19
-7 -3 -4 5 -8 17 -8 18 -1 98 -33 129 -51 4 -2 7 0 7 5 0 4 -21 18 -47 30 -69
30 -23 20 217 -50 113 -33 221 -65 240 -70 33 -10 33 -11 15 -24 -11 -8 -20
-18 -21 -22 0 -4 -15 -37 -32 -74 -18 -37 -32 -74 -32 -83 0 -8 -3 -15 -7 -15
-5 0 -71 34 -148 74 -77 41 -213 112 -302 157 -89 46 -161 85 -159 86 1 2 76
-30 167 -71 230 -103 430 -179 441 -168 5 5 -26 26 -79 52 -289 140 -514 254
-519 262 -3 5 11 1 33 -8 21 -9 48 -16 61 -15z m-123 -39 c3 -6 -1 -7 -9 -4
-18 7 -21 14 -7 14 6 0 13 -4 16 -10z m-1444 -252 c33 -46 33 -132 0 -159 -31
-25 -37 -24 -72 10 -25 25 -29 37 -29 83 0 95 55 131 101 66z m2282 14 c35
-38 30 -128 -10 -167 -21 -22 -60 -18 -77 7 -39 56 2 176 60 178 6 0 18 -8 27
-18z"/>
<path d="M1532 5400 c0 -19 2 -27 5 -17 2 9 2 25 0 35 -3 9 -5 1 -5 -18z"/>
<path d="M1430 5285 c0 -5 5 -17 10 -25 5 -8 10 -10 10 -5 0 6 -5 17 -10 25
-5 8 -10 11 -10 5z"/>
<path d="M1386 5235 c4 -27 20 -75 36 -105 16 -30 26 -46 22 -35 -3 11 -20 58
-35 105 -27 77 -29 80 -23 35z"/>
<path d="M1460 5205 c0 -5 5 -17 10 -25 5 -8 10 -10 10 -5 0 6 -5 17 -10 25
-5 8 -10 11 -10 5z"/>
<path d="M1290 5067 c0 -52 59 -170 119 -237 26 -29 23 -20 -17 47 -27 44 -59
109 -72 142 -22 61 -30 73 -30 48z"/>
<path d="M1275 4920 c9 -61 56 -139 148 -246 49 -57 91 -104 93 -104 3 0 -26
39 -64 88 -79 101 -121 166 -157 242 -23 49 -25 51 -20 20z"/>
<path d="M1260 4794 c-1 -42 96 -232 160 -313 106 -134 361 -263 514 -260 38
1 36 2 -24 15 -276 59 -454 205 -612 499 -21 39 -38 65 -38 59z"/>
<path d="M1330 4724 c0 -18 61 -107 126 -184 101 -120 186 -179 339 -238 46
-18 216 -52 255 -51 23 1 7 6 -45 16 -119 22 -181 42 -268 85 -132 64 -186
112 -326 284 -85 104 -81 100 -81 88z"/>
<path d="M720 3797 c-24 -53 -51 -90 -100 -139 -63 -61 -65 -65 -32 -51 87 36
144 107 162 203 6 29 9 55 7 56 -2 2 -18 -29 -37 -69z"/>
<path d="M1405 2370 c21 -73 176 -330 229 -379 32 -30 46 -21 16 11 -40 42
-106 141 -175 263 -75 133 -81 141 -70 105z"/>
<path d="M2970 1290 c-12 -8 -11 -10 7 -10 12 0 25 5 28 10 8 13 -15 13 -35 0z"/>
<path d="M2320 1130 c-8 -5 -10 -10 -5 -10 6 0 17 5 25 10 8 5 11 10 5 10 -5
0 -17 -5 -25 -10z"/>
<path d="M2140 1015 c-14 -8 -31 -14 -39 -15 -16 0 -200 -78 -218 -93 -29 -22
2 -24 55 -4 69 26 252 115 252 122 0 9 -25 4 -50 -10z"/>
<path d="M3606 1121 c-3 -5 11 -12 32 -17 45 -9 24 -3 162 -46 112 -35 218
-62 297 -74 21 -3 56 -9 78 -14 54 -12 195 -24 195 -17 0 14 -257 81 -405 106
-33 5 -102 19 -153 30 -51 11 -113 23 -138 26 -26 3 -50 8 -55 10 -4 3 -10 1
-13 -4z"/>
<path d="M3803 836 c0 -8 8 -11 20 -8 14 4 16 7 5 13 -19 12 -25 11 -25 -5z"/>
<path d="M52 2958 c3 -22 6 -23 112 -23 100 0 110 2 123 22 l14 21 -126 1
c-126 2 -126 1 -123 -21z"/>
<path d="M70 2840 c0 -17 6 -19 63 -15 34 2 65 5 70 5 4 0 7 7 7 15 0 12 -14
15 -70 15 -63 0 -70 -2 -70 -20z"/>
<path d="M80 2716 c0 -13 11 -16 60 -16 33 0 60 4 60 10 0 6 -13 10 -29 10
-16 0 -43 3 -60 6 -24 5 -31 3 -31 -10z"/>
<path d="M6002 2723 c-114 -7 -54 -23 84 -23 127 0 171 10 103 24 -31 6 -61 6
-187 -1z"/>
<path d="M105 2580 c4 -6 53 -10 116 -10 66 0 109 4 109 10 0 6 -45 10 -116
10 -74 0 -113 -4 -109 -10z"/>
<path d="M130 2430 c0 -5 21 -10 48 -9 35 0 42 3 27 9 -28 12 -75 12 -75 0z"/>
<path d="M6065 2430 c-14 -6 -1 -9 43 -9 40 -1 61 3 57 9 -7 12 -72 12 -100 0z"/>
<path d="M422 1603 c3 -17 28 -18 368 -17 226 0 374 4 389 10 31 14 -199 24
-527 24 -217 0 -233 -1 -230 -17z"/>
<path d="M5227 1610 c-64 -4 -120 -9 -123 -12 -11 -12 210 -19 486 -16 262 3
285 4 288 21 3 16 -14 17 -265 15 -147 0 -321 -4 -386 -8z"/>
<path d="M474 1504 c3 -9 6 -18 6 -20 0 -10 556 -3 684 9 l141 12 -95 6 c-52
4 -241 7 -419 8 -291 1 -323 -1 -317 -15z"/>
<path d="M5085 1511 l-110 -6 145 -13 c147 -12 665 -17 694 -6 9 3 16 12 16
20 0 12 -52 14 -317 12 -175 -1 -367 -4 -428 -7z"/>
<path d="M532 1411 c3 -14 30 -16 188 -19 102 -2 273 0 380 4 181 7 189 8 110
15 -47 4 -219 9 -383 11 -267 4 -297 3 -295 -11z"/>
<path d="M5050 1411 c-51 -10 300 -23 524 -19 140 2 190 6 194 16 3 9 -69 12
-340 11 -188 -1 -359 -5 -378 -8z"/>
<path d="M592 1318 c6 -16 361 -23 548 -11 l125 7 -100 7 c-55 4 -207 7 -338
8 -187 1 -238 -2 -235 -11z"/>
<path d="M5140 1321 c-177 -11 -42 -21 271 -21 259 0 299 2 299 15 0 13 -32
15 -237 13 -131 -1 -281 -4 -333 -7z"/>
<path d="M662 1228 c6 -17 242 -23 418 -11 l125 8 -145 6 c-262 12 -402 10
-398 -3z"/>
<path d="M5210 1231 l-115 -6 94 -7 c161 -13 453 -10 449 5 -5 13 -224 18
-428 8z"/>
<path d="M833 1123 c53 -2 141 -2 195 0 53 1 9 3 -98 3 -107 0 -151 -2 -97 -3z"/>
<path d="M5268 1123 c57 -2 147 -2 200 0 53 1 7 3 -103 3 -110 0 -154 -2 -97
-3z"/>
<path d="M1086 945 c-4 -19 -22 -50 -40 -70 l-34 -35 57 -50 56 -49 20 24 c11
13 38 29 60 36 57 19 61 26 21 33 -47 9 -103 65 -112 111 -8 45 -20 45 -28 0z"/>
<path d="M5155 965 c-21 -60 -29 -75 -50 -95 -12 -12 -42 -27 -66 -34 l-43
-13 52 -17 c50 -17 92 -54 92 -82 0 -23 13 -16 62 29 25 23 56 49 68 58 l23
15 -38 20 c-35 18 -59 51 -83 114 -9 24 -10 24 -17 5z"/>
<path d="M2990 494 c0 -33 -2 -36 -24 -30 -12 3 -26 3 -29 0 -12 -12 6 -34 28
-34 18 0 24 -7 29 -35 8 -41 36 -49 36 -11 0 25 13 39 38 42 20 3 25 11 19 29
-4 8 -15 15 -25 15 -14 0 -21 9 -25 30 -5 21 -12 30 -27 30 -16 0 -20 -7 -20
-36z"/>
<path d="M3187 490 c-52 -41 -28 -130 35 -130 38 0 78 36 78 70 0 62 -66 97
-113 60z"/>
<path d="M3605 415 c-20 -61 -31 -78 -59 -99 -17 -13 -44 -28 -61 -33 l-30
-10 42 -12 c50 -14 88 -56 104 -114 l12 -42 13 46 c17 57 51 92 106 108 l42
13 -55 26 c-46 23 -58 35 -81 82 -22 45 -28 52 -33 35z"/>
<path d="M2844 372 c-39 -26 -37 -88 4 -103 58 -22 101 60 50 95 -25 18 -37
19 -54 8z"/>
</g>
</svg>
