<?xml version="1.0" standalone="no"?>
<!DOCTYPE svg PUBLIC "-//W3C//DTD SVG 20010904//EN"
 "http://www.w3.org/TR/2001/REC-SVG-20010904/DTD/svg10.dtd">
<svg version="1.0" xmlns="http://www.w3.org/2000/svg"
 width="486.000000pt" height="486.000000pt" viewBox="0 0 486.000000 486.000000"
 preserveAspectRatio="xMidYMid meet">

<g transform="translate(0.000000,486.000000) scale(0.100000,-0.100000)"
fill="#000000" stroke="none">
<path d="M2280 4824 c-368 -44 -598 -108 -885 -249 -665 -325 -1148 -944
-1300 -1665 -40 -190 -54 -464 -35 -675 50 -533 258 -999 626 -1403 l49 -54
68 31 c202 94 459 104 766 29 149 -36 258 -73 538 -184 378 -149 564 -204 823
-246 74 -12 139 -25 144 -30 6 -4 -71 -8 -170 -8 -294 0 -450 35 -834 185
-387 152 -592 208 -808 221 -161 10 -358 -21 -481 -73 l-44 -19 86 -76 86 -75
74 -5 c71 -5 79 -8 188 -75 209 -129 359 -200 569 -268 485 -157 1019 -146
1506 31 354 128 660 325 914 590 414 430 644 967 667 1555 25 652 -225 1277
-702 1754 -369 370 -839 610 -1340 686 -123 18 -426 32 -505 23z m300 -185
c682 -48 1309 -417 1700 -999 171 -254 277 -528 337 -870 28 -164 26 -523 -5
-689 -22 -114 -56 -248 -81 -313 l-11 -28 -110 0 -110 0 0 255 0 256 40 -32
c22 -18 47 -43 55 -56 9 -12 20 -23 25 -23 17 0 11 84 -10 125 -11 21 -19 39
-17 40 1 1 24 13 50 26 27 13 51 27 53 31 7 10 -31 25 -89 33 l-46 7 30 58
c16 32 29 60 29 64 0 15 -32 3 -74 -29 l-45 -34 -20 33 c-11 18 -29 41 -41 51
-20 18 -20 18 -20 -44 l0 -62 -39 23 c-22 12 -43 20 -46 16 -4 -3 3 -24 14
-47 27 -51 27 -51 -9 -51 -43 0 -38 -25 9 -52 l39 -22 -20 -27 c-23 -31 -34
-103 -21 -137 8 -22 11 -20 47 32 21 31 43 56 48 56 8 0 2 -448 -7 -477 -3 -9
-26 -13 -70 -13 -61 0 -65 1 -65 23 1 12 -2 173 -5 357 -4 311 -12 426 -35
548 -4 26 -7 48 -6 50 2 1 27 -11 57 -28 58 -32 147 -65 155 -57 6 6 -45 115
-57 123 -20 12 -6 23 43 34 84 18 158 41 158 49 0 17 -143 73 -200 78 -33 3
-60 9 -60 12 0 4 24 27 53 51 58 49 127 126 127 142 0 7 -20 9 -61 4 l-61 -6
27 46 c15 25 24 48 22 51 -18 17 -152 -51 -191 -97 l-25 -31 -7 28 c-17 70
-118 263 -137 263 -7 0 -8 -60 -3 -166 6 -157 6 -166 -11 -158 -51 22 -194 67
-199 61 -10 -10 40 -88 91 -140 25 -27 45 -50 43 -52 -2 -1 -37 -12 -78 -25
-79 -23 -155 -58 -147 -66 11 -11 153 -44 190 -44 20 0 37 -3 37 -7 0 -5 -14
-28 -30 -52 -33 -49 -50 -99 -50 -151 0 -43 10 -80 20 -80 5 0 54 44 109 99
l101 98 9 -36 c25 -98 35 -264 36 -581 l0 -335 -182 -3 -183 -2 0 225 0 225
-30 0 -30 0 0 -230 0 -230 -25 0 -25 0 0 236 0 235 -27 -3 -28 -3 0 -233 c0
-212 -2 -233 -17 -238 -10 -3 -22 -2 -28 1 -6 4 -10 94 -10 241 l0 234 -24 0
c-32 0 -36 -29 -36 -277 0 -196 -1 -203 -20 -203 -19 0 -20 8 -22 238 l-3 237
-25 0 -25 0 -3 -238 -2 -238 -33 3 -32 3 -3 248 -2 247 -23 -5 c-12 -3 -85
-16 -162 -31 -77 -14 -174 -31 -215 -39 -41 -8 -137 -25 -212 -39 -76 -14
-140 -26 -143 -26 -3 0 -5 -117 -5 -261 0 -204 -3 -260 -12 -257 -10 4 -14 70
-16 275 l-2 271 72 15 c40 9 159 32 263 52 105 19 235 44 290 55 55 11 118 21
140 22 65 5 538 -22 658 -38 20 -2 37 0 37 5 0 5 -42 30 -92 57 -114 58 -188
105 -249 156 l-46 38 -59 -35 c-80 -49 -167 -73 -534 -150 -173 -36 -323 -68
-332 -71 -16 -5 -18 5 -18 110 0 132 -8 124 99 100 l71 -16 0 -60 c0 -52 2
-59 18 -54 9 2 33 7 52 11 65 12 70 15 70 45 l0 28 61 -14 c57 -13 68 -13 190
13 71 14 126 29 123 32 -3 3 -22 11 -42 16 l-37 11 -3 83 c-2 46 1 88 5 92 4
4 36 1 71 -8 l62 -15 0 -84 c0 -46 2 -84 5 -84 2 0 34 14 70 32 l65 32 0 217
0 218 23 3 c37 5 21 22 -40 41 -32 10 -263 73 -513 141 -249 68 -456 128 -458
135 -7 20 57 12 182 -23 146 -42 524 -145 656 -179 52 -14 120 -32 150 -40 98
-27 110 -29 110 -13 0 7 -19 19 -45 26 -47 13 -48 14 -57 125 -3 29 -5 30
-113 57 -60 16 -175 47 -255 70 -80 22 -165 47 -190 54 -25 7 -124 35 -220 63
-96 28 -183 51 -192 51 -16 0 -18 -10 -18 -70 0 -40 -4 -70 -10 -70 -13 0 -13
157 0 165 9 5 50 -5 325 -86 222 -65 381 -109 400 -109 31 0 366 113 358 121
-10 8 -166 61 -668 223 -214 70 -400 131 -412 136 -17 7 -61 -8 -205 -66 -101
-42 -284 -116 -408 -165 -124 -50 -261 -105 -305 -123 -44 -18 -95 -39 -112
-46 -18 -7 -33 -15 -33 -19 0 -3 68 -26 152 -51 83 -25 151 -49 150 -55 -1 -5
-30 -19 -65 -31 -34 -11 -86 -28 -114 -38 l-53 -18 0 -68 c0 -67 0 -68 -31
-79 -40 -14 -35 -42 9 -55 l32 -9 0 -674 0 -674 -47 6 c-121 13 -250 25 -390
36 l-151 12 -7 136 c-15 269 13 928 41 973 4 5 14 -3 24 -19 32 -53 213 -203
227 -189 4 4 7 39 7 79 0 91 -30 161 -90 217 -24 22 -48 40 -54 40 -6 0 -9 4
-6 9 3 4 33 11 66 14 61 5 250 64 250 77 0 4 -28 18 -62 31 -48 18 -83 24
-150 24 -49 0 -88 2 -88 4 0 1 21 26 46 54 41 46 134 190 134 209 0 10 -95
-19 -153 -47 l-47 -22 0 56 c0 75 -11 161 -20 161 -14 0 -98 -175 -115 -240
-9 -36 -19 -70 -20 -77 -2 -7 -35 18 -72 55 -62 62 -154 115 -169 99 -3 -3 14
-36 38 -74 24 -37 47 -73 51 -80 6 -9 -3 -9 -32 2 -22 7 -60 17 -85 20 -37 6
-46 4 -46 -7 0 -26 77 -122 131 -163 l52 -40 -49 -13 c-98 -26 -217 -93 -197
-113 4 -4 35 -11 68 -14 33 -3 74 -8 91 -11 l32 -4 -30 -56 c-17 -30 -28 -58
-25 -61 8 -7 146 46 181 70 l29 21 -7 -65 c-3 -35 -9 -104 -12 -154 -8 -120
-5 -115 -53 -102 -23 6 -41 14 -41 17 0 4 11 17 25 30 36 34 31 44 -16 36
l-40 -6 7 62 7 63 -27 -25 c-15 -13 -37 -40 -48 -58 l-20 -33 -27 24 c-38 36
-78 59 -84 50 -5 -7 16 -77 37 -123 5 -12 -4 -16 -51 -18 -31 -2 -61 -6 -66
-9 -14 -9 12 -30 64 -52 l50 -22 -47 -32 c-26 -18 -54 -43 -63 -56 l-15 -24
47 7 47 7 -6 -44 c-4 -28 -2 -47 5 -51 6 -4 11 -1 11 6 1 7 24 38 52 68 29 30
48 46 44 35 -4 -11 -10 -156 -13 -323 -6 -301 -6 -303 -27 -298 -12 2 -55 8
-98 11 l-76 7 -31 97 c-114 361 -133 800 -51 1159 152 657 630 1238 1247 1516
294 132 494 179 878 204 11 1 85 -3 165 -9z m-45 -1098 c50 -16 137 -43 195
-61 58 -17 123 -38 145 -46 22 -7 87 -27 145 -45 120 -36 125 -38 113 -50 -5
-5 -43 2 -88 16 -44 14 -109 35 -145 45 -36 11 -144 44 -240 74 -96 31 -187
58 -202 62 -16 3 -28 12 -28 20 0 19 2 18 105 -15z m-225 -56 c0 -26 -14 -33
-25 -15 -9 14 1 40 15 40 5 0 10 -11 10 -25z m-120 -45 c0 -31 -16 -41 -26
-15 -5 13 11 45 22 45 2 0 4 -13 4 -30z m-62 -22 c-5 -32 -28 -35 -28 -4 0 17
5 26 16 26 10 0 14 -7 12 -22z m-68 -22 c0 -18 -8 -27 -31 -35 -41 -14 -39
-15 -39 12 0 15 9 28 23 35 35 17 47 14 47 -12z m420 -45 c0 -33 -4 -63 -10
-66 -6 -4 -10 18 -10 59 0 37 4 66 10 66 6 0 10 -26 10 -59z m-161 -16 c1 -45
-2 -56 -19 -65 -19 -10 -20 -8 -20 48 0 60 4 72 25 72 8 0 13 -20 14 -55z
m239 46 c9 -5 12 -25 10 -62 -3 -48 -5 -54 -23 -51 -42 6 -45 11 -45 67 0 50
2 55 23 55 12 0 28 -4 35 -9z m102 -47 c11 -27 14 -104 5 -104 -3 0 -21 7 -41
15 -34 14 -35 16 -33 65 2 48 4 50 31 50 21 0 31 -6 38 -26z m-796 -21 c-17
-27 -34 -27 -34 0 0 27 19 40 35 25 6 -5 6 -14 -1 -25z m327 -24 c-3 -59 -5
-64 -20 -54 -12 7 -15 97 -4 109 17 17 27 -5 24 -55z m577 -22 c3 -52 1 -57
-18 -57 -45 0 -60 18 -60 69 0 26 2 50 5 53 3 3 20 2 38 -1 31 -7 32 -8 35
-64z m-643 2 c0 -41 -4 -54 -15 -54 -16 0 -27 73 -16 102 13 33 31 5 31 -48z
m-325 32 c0 -17 -18 -31 -41 -31 -13 0 -11 24 3 38 18 18 38 14 38 -7z m1058
-6 c19 -6 22 -13 22 -61 0 -48 -2 -54 -21 -54 -45 0 -59 17 -59 76 0 59 -4 57
58 39z m-798 -45 c0 -38 -4 -52 -19 -60 -30 -15 -31 -14 -31 43 0 58 4 67 32
67 15 0 18 -8 18 -50z m923 8 c12 -6 17 -21 17 -57 0 -26 -2 -50 -5 -53 -3 -3
-24 -1 -45 4 l-40 10 0 59 0 59 28 -6 c15 -4 35 -11 45 -16z m-1003 -38 c0
-45 -3 -52 -26 -60 -14 -6 -27 -10 -30 -10 -2 0 -4 24 -4 54 0 44 4 55 18 59
39 10 42 8 42 -43z m1132 -3 c5 -7 7 -32 6 -57 -3 -49 -13 -53 -71 -31 -24 10
-27 15 -27 62 l0 52 42 -7 c23 -4 46 -12 50 -19z m-1252 -30 c0 -40 -13 -67
-32 -67 -10 0 -11 94 -1 103 19 20 33 5 33 -36z m-70 -26 c0 -45 -10 -61 -36
-61 -7 0 -4 96 3 103 20 21 33 4 33 -42z m1434 29 c27 -10 28 -13 23 -56 -2
-25 -7 -48 -11 -51 -3 -3 -26 0 -51 7 l-45 13 0 55 c0 54 0 54 28 49 15 -3 40
-10 56 -17z m-1525 -77 c1 -35 -11 -46 -66 -58 l-33 -7 0 54 0 54 43 15 c41
16 42 15 49 -5 3 -12 6 -35 7 -53z m739 -431 c2 -433 0 -492 -13 -492 -13 0
-15 60 -15 496 0 392 3 495 13 492 9 -4 13 -114 15 -496z m880 429 c3 -50 2
-52 -20 -49 -21 3 -23 9 -26 60 -3 56 -2 58 20 49 19 -7 23 -16 26 -60z m90
-25 l3 -58 -28 7 c-35 9 -34 6 -40 54 -8 57 0 71 34 62 26 -7 28 -11 31 -65z
m-1838 -1 c0 -48 -2 -55 -20 -55 -17 0 -20 7 -20 48 0 51 5 62 27 62 9 0 13
-16 13 -55z m-62 -17 c-3 -46 -6 -53 -25 -56 -21 -3 -23 1 -23 40 0 45 13 68
38 68 10 0 12 -14 10 -52z m812 -52 l0 -104 -30 -11 c-40 -13 -42 -8 -38 110
l3 94 30 6 c17 4 31 7 33 8 1 0 2 -46 2 -103z m335 42 l50 -13 3 -84 c2 -46 1
-90 -2 -97 -3 -9 -24 -7 -85 9 l-81 22 0 96 0 97 33 -8 c17 -5 55 -14 82 -22z
m-635 -128 l0 -99 -52 -16 c-28 -8 -53 -15 -55 -15 -2 0 -2 44 -1 97 l3 97 45
18 c25 9 48 17 53 17 4 1 7 -44 7 -99z m965 38 c6 -6 7 -35 6 -107 l-1 -73
-32 6 c-18 3 -49 11 -70 17 l-38 10 0 93 0 93 66 -18 c37 -10 68 -20 69 -21z
m-1285 -131 l0 -94 -39 -11 c-21 -7 -41 -12 -45 -12 -3 0 -6 42 -6 94 l0 94
38 10 c20 5 40 10 45 11 4 1 7 -41 7 -92z m1525 75 l50 -17 3 -87 c2 -57 -1
-88 -8 -88 -6 0 -37 7 -70 17 l-60 16 0 82 c0 45 3 85 7 88 9 10 21 8 78 -11z
m-912 -332 c-4 -4 -20 -10 -35 -14 l-28 -6 0 100 0 99 33 9 32 8 3 -94 c1 -53
-1 -98 -5 -102z m328 164 l69 -16 0 -94 c0 -54 -4 -94 -10 -94 -5 0 -43 7 -85
17 l-75 16 0 94 c0 107 -7 102 101 77z m-621 -143 l0 -99 -50 -11 c-28 -6 -53
-11 -56 -11 -3 0 -3 44 -2 97 l3 97 45 12 c25 7 48 12 53 13 4 1 7 -44 7 -98z
m940 64 l35 -12 3 -78 c2 -43 -1 -82 -6 -87 -12 -12 -128 10 -141 26 -4 6 -6
48 -3 94 l5 82 36 -6 c20 -4 52 -12 71 -19z m-1262 -240 c-2 -1 -22 -5 -46 -9
l-43 -6 3 91 3 92 40 11 40 12 3 -94 c1 -52 1 -96 0 -97z m622 -89 l0 -104
-30 -4 c-17 -3 -32 -2 -35 0 -3 3 -5 49 -5 103 0 103 1 104 53 108 15 1 17
-10 17 -103z m-290 -60 l0 -104 -50 -11 c-28 -6 -55 -11 -61 -11 -6 0 -9 38
-7 97 l3 97 55 18 c30 9 56 17 58 17 1 1 2 -46 2 -103z m-1254 -43 c-2 -65 -5
-226 -5 -358 l-1 -240 -62 5 -63 5 -6 80 c-6 74 -11 328 -10 470 l1 59 40 -39
c22 -21 42 -47 46 -57 9 -31 23 -20 29 26 6 41 -3 73 -43 148 -3 6 17 11 65
17 10 1 12 -27 9 -116z m924 -28 c0 -102 2 -99 -57 -109 l-33 -5 0 93 0 94 38
10 c20 5 40 10 45 11 4 1 7 -42 7 -94z m1430 -320 l0 -165 -30 -6 c-30 -6 -30
-7 -30 -75 l0 -69 -85 0 -85 0 0 195 c0 226 6 248 68 264 46 13 76 18 125 20
l37 1 0 -165z m-810 -34 c0 -104 -1 -109 -22 -115 -48 -12 -48 -11 -48 99 0
100 1 106 23 115 46 18 47 16 47 -99z m-267 -273 c-2 -5 -38 -8 -79 -8 l-74 0
0 174 0 175 53 10 c103 20 91 40 98 -164 4 -99 5 -183 2 -187z m612 349 l70
-12 0 -100 0 -100 -97 -3 -98 -3 0 116 0 115 28 -1 c15 0 59 -6 97 -12z m-972
-207 c-4 -4 -25 -10 -45 -13 l-38 -6 0 99 0 99 43 8 42 9 3 -95 c1 -52 -1 -97
-5 -101z m2245 -283 l-3 -32 -121 -5 c-176 -7 -198 -27 -195 -177 1 -46 -2
-83 -7 -83 -5 0 -7 11 -4 25 2 15 0 25 -7 25 -6 0 -11 -15 -12 -32 0 -28 -2
-30 -9 -13 l-9 20 0 -20 c-1 -17 -3 -17 -11 -5 -6 9 -10 10 -10 3 0 -14 -32
-21 -125 -29 -38 -3 -88 -7 -110 -10 -30 -4 -36 -3 -25 5 12 8 6 11 -25 10
-29 0 -35 -3 -21 -8 45 -18 -19 -23 -292 -23 -350 -1 -388 4 -747 109 -82 24
-166 49 -185 54 -31 9 -341 38 -412 39 -16 0 -28 -4 -28 -10 0 -5 15 -7 33 -5
22 4 18 1 -15 -10 -54 -18 -63 -30 -18 -23 17 3 30 1 30 -3 0 -4 19 -10 43
-14 176 -28 426 -103 777 -233 320 -119 411 -145 665 -195 95 -18 145 -21 360
-21 214 0 266 4 360 22 60 12 111 19 114 17 5 -5 2 -138 -4 -143 -6 -7 -133
-30 -230 -42 -66 -8 -169 -11 -300 -7 -324 8 -537 54 -965 207 -444 159 -606
207 -851 251 -171 31 -513 34 -634 5 -96 -22 -217 -59 -267 -80 -21 -9 -42
-16 -47 -16 -13 0 -47 133 -35 137 47 19 79 41 82 58 2 13 0 16 -5 8 -10 -15
-74 63 -119 144 -18 33 -36 53 -47 53 -18 0 -53 63 -43 78 2 4 786 6 1741 4
l1736 -2 -3 -33z m-225 -179 c-4 -52 -10 -79 -19 -82 -21 -8 -19 112 2 142 9
13 17 22 19 20 1 -2 0 -38 -2 -80z m217 13 c0 -66 4 -64 -102 -76 l-58 -7 0
49 c0 76 18 93 96 93 l64 0 0 -59z m-210 -211 c176 -12 207 -17 213 -34 12
-30 -12 -35 -211 -47 -159 -10 -245 -10 -400 0 -108 7 -243 15 -300 18 -56 3
-101 7 -99 9 4 5 311 43 422 53 142 12 210 12 375 1z"/>
<path d="M2225 3940 c-99 -44 -202 -91 -230 -104 -27 -13 -83 -38 -122 -56
-40 -18 -73 -36 -73 -40 0 -3 33 -19 73 -36 67 -27 72 -31 75 -62 3 -31 6 -33
30 -27 15 3 113 43 217 87 105 44 206 85 225 90 31 10 61 3 270 -64 217 -69
235 -73 238 -55 3 13 28 30 79 53 42 19 72 39 67 43 -17 15 -638 251 -658 251
-6 -1 -92 -37 -191 -80z"/>
<path d="M550 1371 c0 -5 9 -7 20 -4 11 3 20 7 20 9 0 2 -9 4 -20 4 -11 0 -20
-4 -20 -9z"/>
<path d="M608 1373 c6 -2 18 -2 25 0 6 3 1 5 -13 5 -14 0 -19 -2 -12 -5z"/>
<path d="M700 1370 c0 -5 7 -7 15 -4 8 4 15 8 15 10 0 2 -7 4 -15 4 -8 0 -15
-4 -15 -10z"/>
<path d="M848 1373 c7 -3 16 -2 19 1 4 3 -2 6 -13 5 -11 0 -14 -3 -6 -6z"/>
<path d="M903 1373 c15 -2 39 -2 55 0 15 2 2 4 -28 4 -30 0 -43 -2 -27 -4z"/>
<path d="M1040 1373 c0 -4 63 -9 140 -9 77 -1 140 2 140 6 0 4 -63 8 -140 9
-77 1 -140 -2 -140 -6z"/>
<path d="M1405 1370 c28 -12 83 -12 90 0 4 6 -16 10 -52 9 -42 0 -52 -3 -38
-9z"/>
<path d="M1550 1365 c0 -8 4 -15 9 -15 5 0 14 7 21 15 10 13 9 15 -9 15 -12 0
-21 -6 -21 -15z"/>
<path d="M2938 1373 c7 -3 16 -2 19 1 4 3 -2 6 -13 5 -11 0 -14 -3 -6 -6z"/>
<path d="M1170 1289 c-19 -4 -57 -6 -84 -4 -30 3 -45 1 -37 -4 11 -7 11 -10 0
-15 -8 -3 11 -3 42 0 31 3 90 5 130 5 41 0 81 5 89 10 11 7 4 9 -27 7 -23 -2
-40 0 -37 3 5 9 -32 8 -76 -2z"/>
<path d="M1370 1270 c-11 -7 -7 -10 18 -10 20 0 31 4 27 10 -8 13 -26 13 -45
0z"/>
<path d="M3143 1253 c9 -2 23 -2 30 0 6 3 -1 5 -18 5 -16 0 -22 -2 -12 -5z"/>
<path d="M2418 1243 c12 -2 30 -2 40 0 9 3 -1 5 -23 4 -22 0 -30 -2 -17 -4z"/>
<path d="M650 1231 c0 -6 4 -13 10 -16 6 -3 7 1 4 9 -7 18 -14 21 -14 7z"/>
<path d="M2655 1230 c33 -4 64 -3 70 2 5 4 -22 7 -60 7 l-70 -2 60 -7z"/>
<path d="M765 1220 c-3 -5 1 -10 10 -10 9 0 13 5 10 10 -3 6 -8 10 -10 10 -2
0 -7 -4 -10 -10z"/>
<path d="M3220 1182 c0 -4 17 -8 38 -8 96 -3 212 -17 206 -25 -3 -5 4 -9 16
-9 24 0 53 24 42 35 -4 3 5 4 21 0 17 -5 27 -3 27 4 0 8 -54 11 -175 11 -96 0
-175 -3 -175 -8z"/>
<path d="M3360 1140 c0 -5 9 -10 20 -10 11 0 20 5 20 10 0 6 -9 10 -20 10 -11
0 -20 -4 -20 -10z"/>
<path d="M2988 1093 c7 -3 16 -2 19 1 4 3 -2 6 -13 5 -11 0 -14 -3 -6 -6z"/>
</g>
</svg>
